<svg version="1.1" xmlns="http://www.w3.org/2000/svg" viewBox="0 0 458.7374829005074 116.19701607197175" width="917.4749658010148" height="232.3940321439435" filter="invert(93%) hue-rotate(180deg)">
  <!-- svg-source:excalidraw -->
  
  <defs>
    <style class="style-fonts">
      @font-face {
        font-family: "Virgil";
        src: url("https://excalidraw.com/Virgil.woff2");
      }
      @font-face {
        font-family: "Cascadia";
        src: url("https://excalidraw.com/Cascadia.woff2");
      }
      @font-face {
        font-family: "Assistant";
        src: url("https://excalidraw.com/Assistant-Regular.woff2");
      }
    </style>
    
  </defs>
  <rect x="0" y="0" width="458.7374829005074" height="116.19701607197175" fill="#ffffff"></rect><g stroke-linecap="round" transform="translate(71.8778128220988 28.334003033044212) rotate(0 18.316345784509053 16.30826614000543)"><path d="M8.15 0 C11.4 -0.79, 16.9 0.59, 28.48 0 M8.15 0 C15.7 -0.32, 23.17 0.42, 28.48 0 M28.48 0 C32.89 -0.82, 35.59 1.21, 36.63 8.15 M28.48 0 C34.25 -2.17, 36.54 2, 36.63 8.15 M36.63 8.15 C37.25 15.54, 36.34 19.55, 36.63 24.46 M36.63 8.15 C36.61 12.03, 36.88 16.06, 36.63 24.46 M36.63 24.46 C35.65 28.35, 33.29 33.59, 28.48 32.62 M36.63 24.46 C34.92 27.76, 32.72 34.27, 28.48 32.62 M28.48 32.62 C22.17 33.33, 19.68 33.66, 8.15 32.62 M28.48 32.62 C23.75 33.43, 17.53 33.32, 8.15 32.62 M8.15 32.62 C2.47 34.53, -0.9 30.51, 0 24.46 M8.15 32.62 C2.54 33.01, -0.41 31.31, 0 24.46 M0 24.46 C-1.13 19.91, -1.36 14.78, 0 8.15 M0 24.46 C-0.31 20.21, 0.61 17.35, 0 8.15 M0 8.15 C-0.36 1.99, 3.06 1.13, 8.15 0 M0 8.15 C-1.43 4.98, 4.05 1.17, 8.15 0" stroke="#1e1e1e" stroke-width="1" fill="none"></path></g><g transform="translate(53.3482433340846 64.75802155074643) rotate(0 39.049964904785156 12.5)"><text x="0" y="0" font-family="Virgil, Segoe UI Emoji" font-size="20px" fill="#1e1e1e" text-anchor="start" style="white-space: pre;" direction="ltr" dominant-baseline="text-before-edge">macbook</text></g><g transform="translate(21.637973780995367 13.422933464998607) rotate(0 8.21504031599676 5.47669354399784)" stroke="none"><path fill="#1e1e1e" d="M -1.86,-1.86 Q -1.86,-1.86 -1.08,-2.66 -0.30,-3.47 0.72,-4.31 1.75,-5.14 3.10,-5.68 4.45,-6.22 5.63,-6.33 6.81,-6.44 7.93,-6.50 9.06,-6.57 10.88,-6.21 12.71,-5.86 14.46,-5.57 16.22,-5.28 17.53,-4.50 18.85,-3.72 19.65,-2.63 20.44,-1.54 21.41,-0.17 22.38,1.19 22.77,2.28 23.16,3.36 23.28,4.42 23.41,5.48 23.43,6.58 23.46,7.69 23.03,9.63 22.60,11.58 21.38,12.64 20.15,13.71 18.73,14.69 17.31,15.67 16.21,15.91 15.12,16.14 13.11,16.63 11.10,17.13 10.04,17.45 8.98,17.76 7.53,17.88 6.07,18.00 5.00,18.02 3.93,18.03 2.32,17.60 0.72,17.16 -0.29,16.32 -1.30,15.49 -2.30,14.48 -3.30,13.47 -4.14,12.26 -4.98,11.05 -5.89,9.76 -6.80,8.47 -6.96,7.31 -7.13,6.14 -7.15,5.04 -7.16,3.94 -7.14,2.44 -7.11,0.94 -6.57,-0.32 -6.04,-1.59 -4.69,-1.84 -3.33,-2.09 -3.09,-2.48 -2.86,-2.87 -2.53,-3.18 -2.21,-3.50 -1.82,-3.73 -1.43,-3.96 -0.99,-4.10 -0.56,-4.23 -0.11,-4.25 0.34,-4.27 0.78,-4.19 1.23,-4.10 1.64,-3.91 2.05,-3.72 2.41,-3.44 2.76,-3.16 3.04,-2.80 3.31,-2.44 3.50,-2.02 3.68,-1.61 3.76,-1.16 3.83,-0.71 3.80,-0.26 3.77,0.18 3.63,0.61 3.49,1.05 3.46,1.12 3.42,1.20 3.05,1.69 2.69,2.18 2.19,2.52 1.69,2.87 1.10,3.04 0.52,3.21 -0.08,3.18 -0.69,3.15 -1.25,2.93 -1.82,2.71 -2.29,2.33 -2.76,1.94 -3.08,1.42 -3.40,0.90 -3.53,0.31 -3.67,-0.28 -3.61,-0.88 -3.55,-1.49 -3.30,-2.04 -3.05,-2.60 -2.64,-3.05 -2.22,-3.49 -1.69,-3.78 -1.15,-4.07 -0.55,-4.18 0.04,-4.28 0.64,-4.19 1.24,-4.10 1.78,-3.82 2.32,-3.54 2.75,-3.10 3.17,-2.66 3.43,-2.11 3.69,-1.56 3.76,-0.96 3.83,-0.35 3.71,0.23 3.58,0.83 3.28,1.35 2.97,1.88 2.51,2.28 2.05,2.68 1.48,2.91 0.92,3.14 0.31,3.18 -0.28,3.22 -0.87,3.06 -1.46,2.90 -1.97,2.56 -2.48,2.23 -2.85,1.75 -3.22,1.27 -3.42,0.69 -3.62,0.12 -3.63,-0.48 -3.63,-1.09 -3.48,-1.59 -3.33,-2.09 -3.09,-2.48 -2.86,-2.87 -2.53,-3.18 -2.21,-3.50 -1.82,-3.73 -1.43,-3.96 -0.99,-4.09 -0.56,-4.23 -0.11,-4.25 0.34,-4.27 0.78,-4.19 1.23,-4.10 1.64,-3.91 2.05,-3.72 2.41,-3.44 2.76,-3.16 3.04,-2.80 3.31,-2.44 3.50,-2.02 3.68,-1.61 3.76,-1.16 3.83,-0.71 3.80,-0.26 3.77,0.18 3.63,0.61 3.49,1.05 1.88,1.24 0.26,1.43 0.29,2.67 0.32,3.91 0.06,5.09 -0.19,6.27 0.38,7.24 0.96,8.21 1.97,8.82 2.98,9.43 4.12,10.07 5.26,10.72 6.62,10.66 7.98,10.61 9.23,10.28 10.48,9.95 11.60,9.59 12.72,9.23 14.48,8.47 16.23,7.72 16.37,6.59 16.51,5.46 15.68,3.70 14.86,1.94 13.95,1.25 13.03,0.56 11.63,0.15 10.23,-0.26 8.96,-0.29 7.69,-0.33 6.56,-0.38 5.44,-0.43 4.44,-0.05 3.45,0.32 2.65,1.09 1.86,1.86 1.61,2.05 1.36,2.25 1.07,2.38 0.78,2.51 0.47,2.57 0.15,2.62 -0.15,2.60 -0.47,2.58 -0.77,2.49 -1.08,2.40 -1.35,2.23 -1.62,2.07 -1.84,1.84 -2.07,1.62 -2.23,1.35 -2.40,1.08 -2.49,0.77 -2.58,0.47 -2.60,0.15 -2.62,-0.15 -2.57,-0.47 -2.51,-0.78 -2.38,-1.07 -2.25,-1.36 -2.05,-1.61 -1.86,-1.86 -1.86,-1.86 L -1.86,-1.86 Z"></path></g><g transform="translate(25.74549393899383 30.537600789991814) rotate(0 0.34229334649984366 12.664853820494983)" stroke="none"><path fill="#1e1e1e" d="M 2.67,0 Q 2.67,0 2.68,1.18 2.69,2.36 2.75,4.22 2.81,6.09 2.85,7.91 2.89,9.74 2.95,11.19 3.00,12.64 3.04,14.02 3.08,15.41 3.11,16.56 3.15,17.71 3.51,19.03 3.87,20.35 3.94,22.73 4.01,25.11 3.92,25.64 3.83,26.17 3.58,26.65 3.33,27.12 2.94,27.49 2.55,27.86 2.06,28.09 1.57,28.31 1.04,28.37 0.50,28.43 -0.01,28.32 -0.54,28.20 -1.00,27.92 -1.46,27.65 -1.81,27.24 -2.16,26.83 -2.36,26.33 -2.56,25.83 -2.59,25.29 -2.62,24.75 -2.47,24.23 -2.33,23.71 -2.03,23.27 -1.73,22.82 -1.30,22.50 -0.87,22.17 -0.36,22.00 0.14,21.83 0.68,21.83 1.22,21.83 1.73,22.00 2.24,22.17 2.66,22.50 3.09,22.82 3.40,23.27 3.70,23.71 3.84,24.23 3.99,24.75 3.96,25.29 3.93,25.82 3.73,26.32 3.53,26.82 3.18,27.23 2.83,27.64 2.37,27.92 1.91,28.20 1.39,28.31 0.86,28.43 0.33,28.37 -0.20,28.31 -0.69,28.09 -1.18,27.86 -1.57,27.49 -1.96,27.12 -2.21,26.65 -2.46,26.17 -2.55,25.64 -2.64,25.11 -2.64,25.11 -2.64,25.11 -2.63,23.62 -2.63,22.13 -2.63,21.04 -2.64,19.95 -2.89,18.88 -3.15,17.81 -3.11,16.61 -3.08,15.41 -3.04,14.02 -3.00,12.64 -2.95,11.19 -2.89,9.74 -2.85,7.91 -2.81,6.09 -2.75,4.22 -2.69,2.36 -2.68,1.18 -2.67,0 -2.63,-0.31 -2.59,-0.63 -2.47,-0.94 -2.36,-1.24 -2.18,-1.50 -1.99,-1.77 -1.75,-1.98 -1.51,-2.19 -1.23,-2.34 -0.94,-2.49 -0.63,-2.57 -0.32,-2.65 0.00,-2.65 0.32,-2.65 0.63,-2.57 0.94,-2.49 1.23,-2.34 1.51,-2.19 1.75,-1.98 1.99,-1.77 2.18,-1.50 2.36,-1.24 2.47,-0.94 2.59,-0.63 2.63,-0.31 2.67,0.00 2.67,0.00 L 2.67,0 Z"></path></g><g transform="translate(24.376320552994343 55.182721737982035) rotate(0 -6.5035735834974275 8.21504031599676)" stroke="none"><path fill="#1e1e1e" d="M 1.87,1.87 Q 1.87,1.87 0.88,2.85 -0.10,3.82 -1.27,5.36 -2.45,6.89 -3.14,7.89 -3.84,8.88 -4.65,9.94 -5.46,11.00 -6.49,12.19 -7.52,13.37 -8.47,14.64 -9.42,15.92 -9.75,16.65 -10.08,17.37 -10.38,17.62 -10.67,17.87 -11.02,18.04 -11.36,18.22 -11.74,18.30 -12.12,18.38 -12.50,18.37 -12.89,18.36 -13.26,18.26 -13.64,18.16 -13.97,17.97 -14.31,17.79 -14.59,17.52 -14.88,17.26 -15.09,16.94 -15.30,16.61 -15.43,16.25 -15.56,15.89 -15.60,15.50 -15.63,15.12 -15.58,14.73 -15.52,14.35 -15.38,13.99 -15.23,13.64 -15.00,13.32 -14.78,13.01 -14.46,12.75 -14.14,12.49 -13.67,12.28 -13.19,12.08 -12.67,12.04 -12.16,12.00 -11.65,12.13 -11.15,12.25 -10.71,12.54 -10.28,12.82 -9.96,13.22 -9.63,13.63 -9.46,14.11 -9.28,14.60 -9.27,15.12 -9.25,15.64 -9.41,16.13 -9.56,16.63 -9.87,17.05 -10.17,17.47 -10.59,17.77 -11.02,18.07 -11.51,18.22 -12.01,18.37 -12.53,18.35 -13.05,18.34 -13.53,18.16 -14.02,17.98 -14.42,17.65 -14.82,17.32 -15.10,16.88 -15.38,16.45 -15.50,15.94 -15.62,15.44 -15.58,14.92 -15.54,14.41 -15.33,13.93 -15.12,13.46 -14.77,13.07 -14.43,12.69 -13.97,12.43 -13.52,12.18 -13.01,12.08 -12.50,11.99 -11.99,12.06 -11.47,12.13 -11.01,12.37 -10.55,12.60 -10.18,12.97 -9.82,13.33 -9.59,13.80 -9.36,14.27 -9.29,14.78 -9.23,15.29 -9.33,15.80 -9.43,16.31 -9.68,16.76 -9.94,17.21 -10.01,17.29 -10.08,17.37 -10.38,17.62 -10.67,17.87 -11.02,18.04 -11.36,18.22 -11.74,18.30 -12.12,18.38 -12.50,18.37 -12.89,18.36 -13.26,18.26 -13.64,18.16 -13.97,17.97 -14.31,17.79 -14.59,17.52 -14.88,17.26 -15.09,16.94 -15.30,16.62 -15.43,16.25 -15.56,15.89 -15.60,15.50 -15.63,15.12 -15.58,14.74 -15.52,14.35 -15.38,14.00 -15.23,13.64 -15.00,13.32 -14.78,13.01 -13.80,11.65 -12.82,10.30 -11.88,9.39 -10.93,8.48 -10.10,7.43 -9.28,6.38 -8.40,5.27 -7.52,4.17 -6.43,3.07 -5.34,1.96 -4.58,1.03 -3.83,0.10 -2.85,-0.88 -1.87,-1.87 -1.62,-2.07 -1.37,-2.27 -1.08,-2.40 -0.79,-2.53 -0.47,-2.59 -0.16,-2.65 0.15,-2.63 0.47,-2.61 0.78,-2.51 1.09,-2.42 1.36,-2.25 1.63,-2.09 1.86,-1.86 2.09,-1.63 2.25,-1.36 2.42,-1.08 2.51,-0.78 2.61,-0.47 2.63,-0.15 2.65,0.16 2.59,0.47 2.53,0.79 2.40,1.08 2.27,1.37 2.07,1.62 1.87,1.87 1.87,1.87 L 1.87,1.87 Z"></path></g><g transform="translate(26.43008063199352 54.49813504498235) rotate(0 4.449813504498195 7.530453622997015)" stroke="none"><path fill="#1e1e1e" d="M 2.62,-0.52 Q 2.62,-0.52 2.84,0.44 3.06,1.41 3.92,2.63 4.79,3.84 5.75,5.07 6.70,6.29 7.64,7.60 8.58,8.91 9.34,9.98 10.10,11.05 11.04,12.25 11.99,13.44 12.06,13.83 12.13,14.22 12.11,14.61 12.09,15.00 11.97,15.38 11.86,15.76 11.65,16.09 11.45,16.43 11.17,16.71 10.90,16.99 10.56,17.20 10.22,17.40 9.85,17.52 9.47,17.64 9.08,17.67 8.69,17.69 8.30,17.62 7.91,17.55 7.55,17.39 7.19,17.23 6.88,16.99 6.57,16.75 6.32,16.44 6.08,16.13 5.92,15.77 5.75,15.41 6.10,13.83 6.44,12.24 6.86,11.91 7.27,11.58 7.77,11.40 8.26,11.22 8.79,11.20 9.32,11.19 9.83,11.35 10.33,11.50 10.76,11.81 11.19,12.12 11.50,12.55 11.80,12.98 11.96,13.49 12.11,14.00 12.09,14.52 12.08,15.05 11.89,15.55 11.71,16.04 11.38,16.46 11.05,16.87 10.60,17.15 10.15,17.43 9.64,17.56 9.13,17.69 8.60,17.64 8.07,17.60 7.59,17.39 7.10,17.18 6.71,16.82 6.32,16.47 6.06,16.01 5.80,15.55 5.70,15.03 5.60,14.51 5.68,13.98 5.75,13.46 5.98,12.99 6.22,12.51 6.60,12.14 6.97,11.77 7.45,11.53 7.92,11.30 8.44,11.23 8.97,11.16 9.49,11.26 10.01,11.36 10.47,11.62 10.93,11.89 11.28,12.28 11.63,12.68 11.84,13.16 12.04,13.65 12.09,14.18 12.13,14.70 12.00,15.22 11.87,15.73 11.93,14.59 11.99,13.44 12.06,13.83 12.13,14.22 12.11,14.61 12.09,15.00 11.97,15.38 11.86,15.76 11.65,16.09 11.45,16.43 11.17,16.71 10.90,16.99 10.56,17.20 10.22,17.40 9.85,17.52 9.47,17.64 9.08,17.67 8.69,17.69 8.30,17.62 7.91,17.55 7.55,17.39 7.19,17.23 6.88,16.99 6.57,16.75 6.32,16.44 6.08,16.13 5.92,15.77 5.75,15.41 5.17,14.28 4.58,13.15 3.54,11.95 2.51,10.76 1.77,9.61 1.03,8.47 0.12,7.10 -0.77,5.74 -1.52,4.13 -2.27,2.51 -2.44,1.52 -2.62,0.52 -2.64,0.20 -2.67,-0.11 -2.61,-0.43 -2.56,-0.75 -2.43,-1.04 -2.30,-1.34 -2.11,-1.60 -1.92,-1.85 -1.67,-2.06 -1.41,-2.26 -1.12,-2.40 -0.83,-2.53 -0.52,-2.60 -0.20,-2.66 0.11,-2.65 0.43,-2.63 0.74,-2.54 1.05,-2.45 1.33,-2.29 1.61,-2.13 1.84,-1.90 2.07,-1.68 2.24,-1.40 2.41,-1.13 2.52,-0.83 2.62,-0.52 2.62,-0.52 L 2.62,-0.52 Z"></path></g><g transform="translate(25.06090724599403 32.59136086899099) rotate(0 -6.845866929997271 6.5035735834974275)" stroke="none"><path fill="#1e1e1e" d="M 1.66,2.07 Q 1.66,2.07 0.68,2.86 -0.29,3.66 -1.25,4.60 -2.20,5.55 -3.32,6.49 -4.43,7.42 -5.33,8.34 -6.23,9.25 -7.20,10.30 -8.18,11.34 -9.39,12.70 -10.60,14.06 -10.88,14.50 -11.16,14.95 -11.57,15.28 -11.98,15.61 -12.47,15.80 -12.97,15.98 -13.49,16.00 -14.02,16.01 -14.52,15.86 -15.03,15.71 -15.46,15.40 -15.89,15.10 -16.20,14.67 -16.50,14.25 -16.66,13.74 -16.82,13.24 -16.81,12.71 -16.79,12.19 -16.61,11.69 -16.44,11.20 -16.11,10.79 -15.78,10.37 -15.34,10.09 -14.89,9.80 -14.38,9.67 -13.87,9.54 -13.35,9.59 -12.82,9.63 -12.34,9.83 -11.85,10.04 -11.46,10.39 -11.07,10.74 -10.81,11.19 -10.55,11.65 -10.44,12.17 -10.34,12.69 -10.41,13.21 -10.48,13.73 -10.71,14.20 -10.94,14.67 -11.32,15.05 -11.69,15.42 -12.16,15.66 -12.63,15.89 -13.15,15.97 -13.67,16.04 -14.19,15.94 -14.71,15.85 -15.16,15.59 -15.62,15.33 -15.98,14.94 -16.33,14.55 -16.54,14.07 -16.75,13.59 -16.80,13.06 -16.84,12.54 -16.71,12.02 -16.59,11.51 -16.59,11.51 -16.59,11.51 -14.65,9.16 -12.70,6.80 -11.60,5.79 -10.50,4.79 -9.63,4.05 -8.76,3.30 -7.39,2.36 -6.02,1.41 -4.83,0.44 -3.63,-0.51 -2.64,-1.29 -1.66,-2.07 -1.38,-2.24 -1.11,-2.41 -0.81,-2.51 -0.50,-2.61 -0.18,-2.63 0.13,-2.65 0.44,-2.60 0.76,-2.54 1.05,-2.41 1.35,-2.29 1.60,-2.09 1.86,-1.90 2.06,-1.64 2.26,-1.39 2.39,-1.10 2.53,-0.81 2.59,-0.50 2.65,-0.18 2.63,0.13 2.62,0.45 2.52,0.76 2.43,1.06 2.27,1.34 2.11,1.61 1.88,1.84 1.66,2.07 1.66,2.07 L 1.66,2.07 Z"></path></g><g transform="translate(26.43008063199352 34.64512094799022) rotate(0 6.5035735834974275 8.557333662496603)" stroke="none"><path fill="#1e1e1e" d="M 2.18,-1.45 Q 2.18,-1.45 2.96,-0.27 3.74,0.91 5.08,2.40 6.43,3.88 7.22,4.89 8.00,5.89 9.09,7.32 10.19,8.75 11.22,10.33 12.25,11.91 13.22,13.12 14.19,14.34 14.58,14.62 14.98,14.91 15.26,15.30 15.54,15.70 15.68,16.17 15.82,16.63 15.81,17.12 15.79,17.61 15.62,18.06 15.45,18.52 15.15,18.90 14.84,19.28 14.43,19.54 14.02,19.80 13.54,19.91 13.07,20.03 12.59,19.99 12.10,19.95 11.65,19.75 11.21,19.56 10.85,19.23 10.48,18.91 10.25,18.48 10.01,18.05 9.92,17.58 9.83,17.10 9.90,16.61 9.96,16.13 10.18,15.70 10.40,15.26 10.75,14.92 11.09,14.57 11.53,14.36 11.97,14.15 12.45,14.08 12.93,14.02 13.41,14.11 13.89,14.21 14.31,14.45 14.74,14.69 15.06,15.05 15.38,15.42 15.57,15.87 15.76,16.31 15.80,16.80 15.84,17.29 15.72,17.76 15.60,18.23 15.34,18.64 15.07,19.05 14.69,19.35 14.31,19.66 13.85,19.82 13.39,19.99 12.91,20.00 12.42,20.01 11.95,19.87 11.49,19.72 11.49,19.72 11.49,19.72 9.31,17.26 7.13,14.79 6.47,13.58 5.82,12.36 5.13,11.48 4.44,10.59 3.44,9.05 2.43,7.51 1.70,6.67 0.97,5.82 0.19,4.81 -0.59,3.80 -1.39,2.63 -2.18,1.45 -2.33,1.17 -2.47,0.89 -2.54,0.58 -2.61,0.27 -2.61,-0.04 -2.60,-0.35 -2.52,-0.66 -2.44,-0.97 -2.29,-1.25 -2.13,-1.52 -1.92,-1.76 -1.71,-1.99 -1.44,-2.17 -1.18,-2.34 -0.88,-2.45 -0.58,-2.56 -0.27,-2.59 0.04,-2.62 0.35,-2.58 0.67,-2.54 0.96,-2.42 1.25,-2.30 1.51,-2.12 1.77,-1.93 1.98,-1.69 2.18,-1.45 2.18,-1.45 L 2.18,-1.45 Z"></path></g><g transform="translate(10 81.19701607197175) rotate(0 11.79998779296875 12.5)"><text x="0" y="0" font-family="Virgil, Segoe UI Emoji" font-size="20px" fill="#1e1e1e" text-anchor="start" style="white-space: pre;" direction="ltr" dominant-baseline="text-before-edge">me</text></g><g stroke-linecap="round" transform="translate(397.02859099841146 21.190496541561117) rotate(0 17.456960671493107 17.456960671493107)"><path d="M8.73 0 C13.89 -0.6, 20.6 0.05, 26.19 0 M8.73 0 C15.9 -0.46, 21.34 -0.15, 26.19 0 M26.19 0 C31.53 -1.27, 34.87 4.83, 34.91 8.73 M26.19 0 C30.19 0.88, 35.17 3.81, 34.91 8.73 M34.91 8.73 C34.13 13.37, 36.38 18.51, 34.91 26.19 M34.91 8.73 C34.26 14.41, 35.35 21.28, 34.91 26.19 M34.91 26.19 C35.04 32.24, 32.33 33.61, 26.19 34.91 M34.91 26.19 C35.16 31.72, 32.88 36.69, 26.19 34.91 M26.19 34.91 C20.73 35.99, 15.79 34.81, 8.73 34.91 M26.19 34.91 C22.39 34.21, 19.86 34.05, 8.73 34.91 M8.73 34.91 C4.45 36.35, 1.57 31.62, 0 26.19 M8.73 34.91 C2.36 36.7, -1.75 31.42, 0 26.19 M0 26.19 C-1.58 18.09, 1.27 13.23, 0 8.73 M0 26.19 C0.03 19.68, 0.53 13.54, 0 8.73 M0 8.73 C-0.82 2.99, 1.56 1.19, 8.73 0 M0 8.73 C-1.97 5.1, 5.03 -2.2, 8.73 0" stroke="#1e1e1e" stroke-width="1" fill="none"></path></g><g stroke-linecap="round"><g transform="translate(405.92821800740774 30.774710243557365) rotate(0 8.899627008996504 0.6845866929997158)"><path d="M0.3 0.31 C3.25 0.41, 15.35 0.87, 18.19 1.13 M-0.21 -0.01 C2.65 0.39, 14.86 1.53, 17.96 1.71" stroke="#1e1e1e" stroke-width="1" fill="none"></path></g></g><mask></mask><g stroke-linecap="round"><g transform="translate(406.3010782119858 38.60520562547714) rotate(0 8.899627008996504 0.6845866929997158)"><path d="M0.19 0.05 C3.26 0.23, 15.13 1.13, 18.1 1.35 M-0.38 -0.4 C2.68 -0.15, 14.79 1.65, 17.82 2.05" stroke="#1e1e1e" stroke-width="1" fill="none"></path></g></g><mask></mask><g stroke-linecap="round"><g transform="translate(405.74755877501946 46.84860744257156) rotate(0 8.899627008996504 0.6845866929997158)"><path d="M0.18 0.32 C3.11 0.57, 14.49 1.43, 17.35 1.53 M-0.4 0.02 C2.73 0.08, 15.22 0.44, 18.35 0.64" stroke="#1e1e1e" stroke-width="1" fill="none"></path></g></g><mask></mask><g transform="translate(388.3375500391793 62.5535636134382) rotate(0 30.199966430664062 12.5)"><text x="0" y="0" font-family="Virgil, Segoe UI Emoji" font-size="20px" fill="#1e1e1e" text-anchor="start" style="white-space: pre;" direction="ltr" dominant-baseline="text-before-edge">server</text></g><g stroke-linecap="round"><g transform="translate(130.05760850698096 45.16885857501512) rotate(0 119.80267127495244 -1.36917338599946)"><path d="M-0.01 0.91 C39.84 0.25, 199.97 -2.62, 239.73 -3.31 M-1.48 0.34 C38.17 -0.22, 198.45 -1.65, 238.86 -2.08" stroke="#1e1e1e" stroke-width="1" fill="none"></path></g><g transform="translate(130.05760850698096 45.16885857501512) rotate(0 119.80267127495244 -1.36917338599946)"><path d="M215.45 6.7 C225.2 3.81, 231.01 -1.17, 238.86 -2.08 M215.45 6.7 C221.83 4.04, 227.77 1.94, 238.86 -2.08" stroke="#1e1e1e" stroke-width="1" fill="none"></path></g><g transform="translate(130.05760850698096 45.16885857501512) rotate(0 119.80267127495244 -1.36917338599946)"><path d="M215.28 -10.4 C225.18 -7.24, 231.05 -6.17, 238.86 -2.08 M215.28 -10.4 C221.55 -8.67, 227.54 -6.38, 238.86 -2.08" stroke="#1e1e1e" stroke-width="1" fill="none"></path></g></g><mask></mask><g transform="translate(214.04249007084638 11.861220071594175) rotate(0 37.4599609375 12.5)"><text x="0" y="0" font-family="Virgil, Segoe UI Emoji" font-size="20px" fill="#1e1e1e" text-anchor="start" style="white-space: pre;" direction="ltr" dominant-baseline="text-before-edge">request</text></g><g transform="translate(164.04068698424987 59.15737181613554) rotate(0 87.59992980957031 12.5)"><text x="0" y="0" font-family="Virgil, Segoe UI Emoji" font-size="20px" fill="#1e1e1e" text-anchor="start" style="white-space: pre;" direction="ltr" dominant-baseline="text-before-edge">User Agent String</text></g></svg>