<svg version="1.1" xmlns="http://www.w3.org/2000/svg" viewBox="0 0 408.23533853113963 131.94748972819565" width="816.4706770622793" height="263.8949794563913" filter="invert(93%) hue-rotate(180deg)">
  <!-- svg-source:excalidraw -->
  
  <defs>
    <style class="style-fonts">
      @font-face {
        font-family: "Virgil";
        src: url("https://excalidraw.com/Virgil.woff2");
      }
      @font-face {
        font-family: "Cascadia";
        src: url("https://excalidraw.com/Cascadia.woff2");
      }
      @font-face {
        font-family: "Assistant";
        src: url("https://excalidraw.com/Assistant-Regular.woff2");
      }
    </style>
    
  </defs>
  <rect x="0" y="0" width="408.23533853113963" height="131.94748972819565" fill="#ffffff"></rect><g stroke-linecap="round" transform="translate(42.25899583773139 32.97684700902016) rotate(0 7.7052520430132745 16.30826614000543)"><path d="M3.85 0 C5.07 -0.3, 7.16 0.23, 11.56 0 M3.85 0 C6.71 -0.12, 9.55 0.16, 11.56 0 M11.56 0 C13.1 -0.82, 14.37 -0.22, 15.41 3.85 M11.56 0 C14.46 -2.17, 15.32 0.57, 15.41 3.85 M15.41 3.85 C16.17 14.78, 15.06 21.57, 15.41 28.76 M15.41 3.85 C15.37 9.77, 15.7 15.86, 15.41 28.76 M15.41 28.76 C14.43 29.78, 13.5 33.59, 11.56 32.62 M15.41 28.76 C13.69 29.2, 12.93 34.27, 11.56 32.62 M11.56 32.62 C9.16 32.89, 8.23 33.02, 3.85 32.62 M11.56 32.62 C9.77 32.93, 7.4 32.89, 3.85 32.62 M3.85 32.62 C1.04 34.53, -0.9 31.94, 0 28.76 M3.85 32.62 C1.11 33.01, -0.41 32.74, 0 28.76 M0 28.76 C-1.35 21.71, -1.64 13.95, 0 3.85 M0 28.76 C-0.34 22.38, 0.79 17.72, 0 3.85 M0 3.85 C-0.36 0.56, 1.62 1.13, 3.85 0 M0 3.85 C-1.43 3.54, 2.61 1.17, 3.85 0" stroke="#1e1e1e" stroke-width="1" fill="none"></path></g><g transform="translate(56.7915713592688 96.94748972819565) rotate(0 29.419967651367188 12.5)"><text x="0" y="0" font-family="Virgil, Segoe UI Emoji" font-size="20px" fill="#1e1e1e" text-anchor="start" style="white-space: pre;" direction="ltr" dominant-baseline="text-before-edge">iPhone</text></g><g transform="translate(21.637973780995367 15.387633421386852) rotate(0 8.21504031599676 5.47669354399784)" stroke="none"><path fill="#1e1e1e" d="M -1.86,-1.86 Q -1.86,-1.86 -1.08,-2.66 -0.30,-3.47 0.72,-4.31 1.75,-5.14 3.10,-5.68 4.45,-6.22 5.63,-6.33 6.81,-6.44 7.93,-6.50 9.06,-6.57 10.88,-6.21 12.71,-5.86 14.46,-5.57 16.22,-5.28 17.53,-4.50 18.85,-3.72 19.65,-2.63 20.44,-1.54 21.41,-0.17 22.38,1.19 22.77,2.28 23.16,3.36 23.28,4.42 23.41,5.48 23.43,6.58 23.46,7.69 23.03,9.63 22.60,11.58 21.38,12.64 20.15,13.71 18.73,14.69 17.31,15.67 16.21,15.91 15.12,16.14 13.11,16.63 11.10,17.13 10.04,17.45 8.98,17.76 7.53,17.88 6.07,18.00 5.00,18.02 3.93,18.03 2.32,17.60 0.72,17.16 -0.29,16.32 -1.30,15.49 -2.30,14.48 -3.30,13.47 -4.14,12.26 -4.98,11.05 -5.89,9.76 -6.80,8.47 -6.96,7.31 -7.13,6.14 -7.15,5.04 -7.16,3.94 -7.14,2.44 -7.11,0.94 -6.57,-0.32 -6.04,-1.59 -4.63,-2.78 -3.23,-3.97 -2.37,-3.69 -1.52,-3.42 -1.08,-3.55 -0.65,-3.68 -0.20,-3.71 0.24,-3.73 0.68,-3.65 1.13,-3.57 1.54,-3.38 1.95,-3.19 2.30,-2.91 2.66,-2.63 2.94,-2.27 3.21,-1.92 3.40,-1.51 3.58,-1.09 3.66,-0.65 3.74,-0.20 3.71,0.24 3.68,0.69 3.54,1.12 3.40,1.55 3.17,1.94 2.93,2.32 2.61,2.64 2.29,2.96 1.90,3.19 1.52,3.42 2.42,2.57 3.32,1.72 2.96,2.20 2.60,2.69 2.10,3.04 1.60,3.38 1.02,3.55 0.44,3.72 -0.16,3.69 -0.76,3.66 -1.33,3.44 -1.89,3.23 -2.36,2.84 -2.83,2.45 -3.14,1.93 -3.46,1.42 -3.60,0.83 -3.74,0.24 -3.68,-0.36 -3.62,-0.96 -3.37,-1.51 -3.12,-2.07 -2.71,-2.51 -2.29,-2.96 -1.76,-3.25 -1.23,-3.53 -0.63,-3.64 -0.03,-3.74 0.56,-3.65 1.16,-3.56 1.69,-3.28 2.23,-3.00 2.65,-2.57 3.08,-2.13 3.34,-1.58 3.60,-1.03 3.67,-0.43 3.74,0.16 3.61,0.75 3.49,1.35 3.18,1.87 2.88,2.39 2.42,2.79 1.96,3.19 1.40,3.42 0.84,3.65 0.23,3.69 -0.36,3.72 -0.95,3.57 -1.54,3.41 -2.04,3.08 -2.55,2.74 -2.92,2.26 -3.29,1.78 -3.49,1.21 -3.69,0.64 -3.69,0.03 -3.70,-0.56 -2.61,-1.99 -1.52,-3.42 -1.08,-3.55 -0.65,-3.68 -0.20,-3.71 0.24,-3.73 0.68,-3.65 1.13,-3.57 1.54,-3.38 1.95,-3.19 2.30,-2.91 2.66,-2.63 2.93,-2.28 3.21,-1.92 3.40,-1.51 3.58,-1.09 3.66,-0.65 3.74,-0.20 3.71,0.24 3.68,0.69 3.54,1.12 3.41,1.55 3.17,1.94 2.93,2.32 2.61,2.64 2.29,2.96 1.90,3.19 1.52,3.42 0.89,2.43 0.26,1.43 0.29,2.67 0.32,3.91 0.06,5.09 -0.19,6.27 0.38,7.24 0.96,8.21 1.97,8.82 2.98,9.43 4.12,10.07 5.26,10.72 6.62,10.66 7.98,10.61 9.23,10.28 10.48,9.95 11.60,9.59 12.72,9.23 14.48,8.47 16.23,7.72 16.37,6.59 16.51,5.46 15.68,3.70 14.86,1.94 13.95,1.25 13.03,0.56 11.63,0.15 10.23,-0.26 8.96,-0.29 7.69,-0.33 6.56,-0.38 5.44,-0.43 4.44,-0.05 3.45,0.32 2.65,1.09 1.86,1.86 1.61,2.05 1.36,2.25 1.07,2.38 0.78,2.51 0.47,2.57 0.15,2.62 -0.15,2.60 -0.47,2.58 -0.77,2.49 -1.08,2.40 -1.35,2.23 -1.62,2.07 -1.84,1.84 -2.07,1.62 -2.23,1.35 -2.40,1.08 -2.49,0.77 -2.58,0.47 -2.60,0.15 -2.62,-0.15 -2.57,-0.47 -2.51,-0.78 -2.38,-1.07 -2.25,-1.36 -2.05,-1.61 -1.86,-1.86 -1.86,-1.86 L -1.86,-1.86 Z"></path></g><g transform="translate(25.74549393899383 32.50230074638006) rotate(0 0.34229334649984366 12.664853820494983)" stroke="none"><path fill="#1e1e1e" d="M 2.67,0 Q 2.67,0 2.68,1.18 2.69,2.36 2.75,4.22 2.81,6.09 2.85,7.91 2.89,9.74 2.95,11.19 3.00,12.64 3.04,14.02 3.08,15.41 3.11,16.56 3.15,17.71 3.51,19.03 3.87,20.35 3.94,22.83 4.01,25.32 3.93,25.85 3.84,26.39 3.59,26.86 3.33,27.34 2.94,27.71 2.55,28.08 2.06,28.31 1.57,28.54 1.04,28.59 0.50,28.65 -0.02,28.54 -0.54,28.42 -1.00,28.14 -1.47,27.87 -1.82,27.46 -2.17,27.04 -2.37,26.54 -2.57,26.04 -2.59,25.50 -2.62,24.97 -2.48,24.45 -2.34,23.93 -2.03,23.48 -1.73,23.03 -1.30,22.71 -0.87,22.38 -0.36,22.21 0.14,22.04 0.68,22.04 1.22,22.04 1.73,22.21 2.24,22.38 2.67,22.71 3.10,23.03 3.40,23.48 3.70,23.92 3.85,24.44 3.99,24.96 3.96,25.50 3.93,26.04 3.74,26.54 3.54,27.04 3.19,27.45 2.84,27.86 2.38,28.14 1.91,28.42 1.39,28.54 0.86,28.65 0.33,28.59 -0.20,28.54 -0.69,28.31 -1.18,28.08 -1.57,27.71 -1.96,27.34 -2.22,26.87 -2.47,26.39 -2.56,25.86 -2.64,25.33 -2.64,25.33 -2.64,25.33 -2.64,23.73 -2.63,22.13 -2.63,21.04 -2.64,19.95 -2.89,18.88 -3.15,17.81 -3.11,16.61 -3.08,15.41 -3.04,14.02 -3.00,12.64 -2.95,11.19 -2.89,9.74 -2.85,7.91 -2.81,6.09 -2.75,4.22 -2.69,2.36 -2.68,1.18 -2.67,0 -2.63,-0.31 -2.59,-0.63 -2.47,-0.94 -2.36,-1.24 -2.18,-1.50 -1.99,-1.77 -1.75,-1.98 -1.51,-2.19 -1.23,-2.34 -0.94,-2.49 -0.63,-2.57 -0.32,-2.65 0.00,-2.65 0.32,-2.65 0.63,-2.57 0.94,-2.49 1.23,-2.34 1.51,-2.19 1.75,-1.98 1.99,-1.77 2.18,-1.50 2.36,-1.24 2.47,-0.94 2.59,-0.63 2.63,-0.31 2.67,0.00 2.67,0.00 L 2.67,0 Z"></path></g><g transform="translate(24.376320552994343 57.14742169437028) rotate(0 -6.5035735834974275 8.21504031599676)" stroke="none"><path fill="#1e1e1e" d="M 1.87,1.87 Q 1.87,1.87 0.88,2.85 -0.10,3.82 -1.27,5.36 -2.45,6.89 -3.14,7.89 -3.84,8.88 -4.65,9.94 -5.46,11.00 -6.49,12.19 -7.52,13.37 -8.47,14.64 -9.42,15.92 -9.69,16.58 -9.96,17.24 -10.26,17.49 -10.55,17.74 -10.90,17.91 -11.25,18.09 -11.63,18.17 -12.01,18.25 -12.39,18.24 -12.78,18.24 -13.15,18.13 -13.53,18.03 -13.87,17.84 -14.20,17.66 -14.49,17.39 -14.77,17.13 -14.98,16.81 -15.20,16.48 -15.33,16.12 -15.45,15.75 -15.49,15.37 -15.53,14.98 -15.47,14.60 -15.42,14.21 -15.27,13.85 -15.13,13.50 -14.90,13.18 -14.67,12.87 -14.35,12.61 -14.04,12.34 -13.56,12.14 -13.08,11.93 -12.56,11.89 -12.04,11.85 -11.54,11.98 -11.04,12.11 -10.60,12.39 -10.16,12.67 -9.84,13.08 -9.51,13.49 -9.34,13.97 -9.16,14.46 -9.15,14.98 -9.14,15.50 -9.29,16.00 -9.44,16.50 -9.75,16.92 -10.06,17.34 -10.48,17.64 -10.90,17.94 -11.40,18.09 -11.90,18.24 -12.42,18.23 -12.94,18.21 -13.42,18.03 -13.91,17.85 -14.31,17.52 -14.72,17.19 -15.00,16.75 -15.27,16.31 -15.40,15.81 -15.52,15.30 -15.48,14.79 -15.43,14.27 -15.22,13.79 -15.02,13.31 -14.67,12.93 -14.32,12.54 -13.87,12.29 -13.41,12.03 -12.90,11.94 -12.39,11.84 -11.88,11.92 -11.36,11.99 -10.90,12.22 -10.43,12.45 -10.07,12.82 -9.70,13.19 -9.47,13.66 -9.24,14.13 -9.17,14.64 -9.11,15.16 -9.21,15.67 -9.31,16.18 -9.56,16.63 -9.82,17.08 -9.89,17.16 -9.96,17.24 -10.26,17.49 -10.55,17.74 -10.90,17.91 -11.25,18.09 -11.63,18.17 -12.01,18.25 -12.39,18.24 -12.78,18.24 -13.15,18.13 -13.53,18.03 -13.87,17.84 -14.20,17.66 -14.49,17.39 -14.77,17.13 -14.98,16.81 -15.20,16.48 -15.33,16.12 -15.45,15.75 -15.49,15.37 -15.53,14.98 -15.47,14.60 -15.42,14.21 -15.27,13.85 -15.13,13.50 -14.90,13.18 -14.67,12.87 -13.75,11.58 -12.82,10.30 -11.88,9.39 -10.93,8.48 -10.10,7.43 -9.28,6.38 -8.40,5.27 -7.52,4.17 -6.43,3.07 -5.34,1.96 -4.58,1.03 -3.83,0.10 -2.85,-0.88 -1.87,-1.87 -1.62,-2.07 -1.37,-2.27 -1.08,-2.40 -0.79,-2.53 -0.47,-2.59 -0.16,-2.65 0.15,-2.63 0.47,-2.61 0.78,-2.51 1.09,-2.42 1.36,-2.25 1.63,-2.09 1.86,-1.86 2.09,-1.63 2.25,-1.36 2.42,-1.08 2.51,-0.78 2.61,-0.47 2.63,-0.15 2.65,0.16 2.59,0.47 2.53,0.79 2.40,1.08 2.27,1.37 2.07,1.62 1.87,1.87 1.87,1.87 L 1.87,1.87 Z"></path></g><g transform="translate(26.43008063199352 56.46283500137059) rotate(0 4.449813504498195 7.530453622997015)" stroke="none"><path fill="#1e1e1e" d="M 2.62,-0.52 Q 2.62,-0.52 2.84,0.44 3.06,1.41 3.92,2.63 4.79,3.84 5.75,5.07 6.70,6.29 7.64,7.60 8.58,8.91 9.34,9.98 10.10,11.05 11.06,12.22 12.01,13.38 12.09,13.77 12.16,14.16 12.14,14.55 12.12,14.95 12.00,15.32 11.88,15.70 11.68,16.04 11.48,16.38 11.20,16.66 10.92,16.94 10.59,17.14 10.25,17.35 9.87,17.47 9.50,17.59 9.10,17.61 8.71,17.64 8.32,17.57 7.93,17.50 7.57,17.34 7.21,17.18 6.90,16.94 6.59,16.69 6.35,16.39 6.10,16.08 5.94,15.72 5.77,15.36 6.12,13.77 6.47,12.18 6.88,11.85 7.29,11.52 7.79,11.34 8.29,11.16 8.82,11.14 9.35,11.13 9.85,11.29 10.36,11.44 10.79,11.75 11.22,12.06 11.52,12.49 11.83,12.93 11.98,13.43 12.14,13.94 12.12,14.47 12.11,15.00 11.92,15.49 11.74,15.99 11.41,16.40 11.07,16.81 10.63,17.10 10.18,17.38 9.66,17.51 9.15,17.63 8.62,17.59 8.10,17.54 7.61,17.33 7.12,17.12 6.73,16.77 6.34,16.41 6.08,15.95 5.82,15.49 5.72,14.97 5.62,14.45 5.70,13.93 5.77,13.40 6.01,12.93 6.24,12.45 6.62,12.08 6.99,11.71 7.47,11.47 7.94,11.24 8.47,11.17 8.99,11.10 9.51,11.20 10.03,11.30 10.49,11.57 10.95,11.83 11.31,12.22 11.66,12.62 11.87,13.10 12.07,13.59 12.11,14.12 12.16,14.65 12.03,15.16 11.90,15.67 11.96,14.53 12.01,13.38 12.09,13.77 12.16,14.16 12.14,14.55 12.12,14.95 12.00,15.32 11.88,15.70 11.68,16.04 11.48,16.38 11.20,16.66 10.92,16.94 10.59,17.14 10.25,17.35 9.87,17.47 9.50,17.59 9.10,17.61 8.71,17.64 8.32,17.57 7.93,17.50 7.57,17.34 7.21,17.18 6.90,16.94 6.59,16.69 6.35,16.39 6.10,16.08 5.94,15.72 5.77,15.36 5.18,14.26 4.58,13.15 3.54,11.95 2.51,10.76 1.77,9.61 1.03,8.47 0.12,7.10 -0.77,5.74 -1.52,4.13 -2.27,2.51 -2.44,1.52 -2.62,0.52 -2.64,0.20 -2.67,-0.11 -2.61,-0.43 -2.56,-0.75 -2.43,-1.04 -2.30,-1.34 -2.11,-1.60 -1.92,-1.85 -1.67,-2.06 -1.41,-2.26 -1.12,-2.40 -0.83,-2.53 -0.52,-2.60 -0.20,-2.66 0.11,-2.65 0.43,-2.63 0.74,-2.54 1.05,-2.45 1.33,-2.29 1.61,-2.13 1.84,-1.90 2.07,-1.68 2.24,-1.40 2.41,-1.13 2.52,-0.83 2.62,-0.52 2.62,-0.52 L 2.62,-0.52 Z"></path></g><g transform="translate(25.06090724599403 34.556060825379234) rotate(0 -6.845866929997271 6.5035735834974275)" stroke="none"><path fill="#1e1e1e" d="M 1.66,2.07 Q 1.66,2.07 0.68,2.86 -0.29,3.66 -1.25,4.60 -2.20,5.55 -3.32,6.49 -4.43,7.42 -5.33,8.34 -6.23,9.25 -7.20,10.30 -8.18,11.34 -9.42,12.82 -10.66,14.29 -10.94,14.74 -11.23,15.19 -11.64,15.52 -12.05,15.86 -12.55,16.05 -13.05,16.23 -13.58,16.25 -14.12,16.27 -14.63,16.11 -15.14,15.96 -15.57,15.65 -16.00,15.34 -16.32,14.91 -16.63,14.48 -16.79,13.97 -16.95,13.46 -16.93,12.93 -16.92,12.40 -16.74,11.89 -16.56,11.39 -16.23,10.98 -15.89,10.56 -15.45,10.27 -15.00,9.98 -14.48,9.85 -13.97,9.72 -13.44,9.76 -12.91,9.80 -12.42,10.01 -11.93,10.22 -11.53,10.58 -11.13,10.93 -10.87,11.39 -10.60,11.85 -10.50,12.38 -10.40,12.90 -10.47,13.43 -10.54,13.96 -10.77,14.43 -11.01,14.91 -11.38,15.29 -11.76,15.67 -12.23,15.91 -12.71,16.14 -13.24,16.22 -13.76,16.29 -14.29,16.19 -14.81,16.10 -15.27,15.84 -15.74,15.58 -16.10,15.18 -16.45,14.79 -16.67,14.30 -16.88,13.81 -16.92,13.28 -16.97,12.75 -16.84,12.23 -16.72,11.71 -16.72,11.71 -16.72,11.71 -14.71,9.26 -12.70,6.80 -11.60,5.79 -10.50,4.79 -9.63,4.05 -8.76,3.30 -7.39,2.36 -6.02,1.41 -4.83,0.44 -3.63,-0.51 -2.64,-1.29 -1.66,-2.07 -1.38,-2.24 -1.11,-2.41 -0.81,-2.51 -0.50,-2.61 -0.18,-2.63 0.13,-2.65 0.44,-2.60 0.76,-2.54 1.05,-2.41 1.35,-2.29 1.60,-2.09 1.86,-1.90 2.06,-1.64 2.26,-1.39 2.39,-1.10 2.53,-0.81 2.59,-0.50 2.65,-0.18 2.63,0.13 2.62,0.45 2.52,0.76 2.43,1.06 2.27,1.34 2.11,1.61 1.88,1.84 1.66,2.07 1.66,2.07 L 1.66,2.07 Z"></path></g><g transform="translate(26.43008063199352 36.609820904378466) rotate(0 6.940819221616891 4.767871465461496)" stroke="none"><path fill="#1e1e1e" d="M 1.65,-2.10 Q 1.65,-2.10 2.50,-1.46 3.35,-0.82 4.75,-0.05 6.15,0.71 7.64,1.76 9.14,2.81 10.28,3.56 11.42,4.30 13.05,5.39 14.67,6.48 15.14,6.69 15.61,6.90 15.98,7.24 16.36,7.59 16.60,8.03 16.85,8.48 16.94,8.98 17.03,9.48 16.95,9.99 16.88,10.49 16.64,10.95 16.41,11.40 16.05,11.76 15.68,12.11 15.22,12.33 14.76,12.55 14.26,12.62 13.75,12.68 13.25,12.58 12.75,12.47 12.31,12.22 11.87,11.96 11.54,11.58 11.20,11.19 11.01,10.72 10.81,10.25 10.78,9.75 10.74,9.24 10.87,8.74 11.00,8.25 11.28,7.82 11.56,7.40 11.96,7.08 12.36,6.77 12.84,6.60 13.32,6.43 13.83,6.42 14.34,6.41 14.83,6.57 15.31,6.73 15.72,7.03 16.13,7.33 16.42,7.75 16.72,8.17 16.86,8.65 17.00,9.14 16.98,9.65 16.96,10.16 16.78,10.64 16.60,11.11 16.28,11.51 15.95,11.90 15.52,12.17 15.09,12.44 14.59,12.56 14.09,12.67 13.59,12.63 13.08,12.58 13.08,12.58 13.08,12.58 11.19,11.55 9.31,10.53 8.45,9.78 7.60,9.02 6.49,8.18 5.38,7.33 4.35,6.48 3.32,5.63 1.66,4.54 0.00,3.46 -0.82,2.78 -1.65,2.10 -1.87,1.87 -2.10,1.65 -2.27,1.37 -2.44,1.09 -2.53,0.79 -2.63,0.48 -2.65,0.16 -2.67,-0.16 -2.61,-0.47 -2.55,-0.79 -2.42,-1.08 -2.29,-1.38 -2.09,-1.63 -1.89,-1.89 -1.63,-2.09 -1.38,-2.29 -1.09,-2.42 -0.79,-2.55 -0.47,-2.61 -0.16,-2.67 0.16,-2.65 0.48,-2.63 0.79,-2.53 1.09,-2.44 1.37,-2.27 1.65,-2.10 1.65,-2.10 L 1.65,-2.10 Z"></path></g><g transform="translate(10 83.16171602835999) rotate(0 11.79998779296875 12.5)"><text x="0" y="0" font-family="Virgil, Segoe UI Emoji" font-size="20px" fill="#1e1e1e" text-anchor="start" style="white-space: pre;" direction="ltr" dominant-baseline="text-before-edge">me</text></g><g stroke-linecap="round" transform="translate(346.5264466290437 19.329276469966942) rotate(0 17.456960671493107 17.456960671493107)"><path d="M8.73 0 C13.89 -0.6, 20.6 0.05, 26.19 0 M8.73 0 C15.9 -0.46, 21.34 -0.15, 26.19 0 M26.19 0 C31.53 -1.27, 34.87 4.83, 34.91 8.73 M26.19 0 C30.19 0.88, 35.17 3.81, 34.91 8.73 M34.91 8.73 C34.13 13.37, 36.38 18.51, 34.91 26.19 M34.91 8.73 C34.26 14.41, 35.35 21.28, 34.91 26.19 M34.91 26.19 C35.04 32.24, 32.33 33.61, 26.19 34.91 M34.91 26.19 C35.16 31.72, 32.88 36.69, 26.19 34.91 M26.19 34.91 C20.73 35.99, 15.79 34.81, 8.73 34.91 M26.19 34.91 C22.39 34.21, 19.86 34.05, 8.73 34.91 M8.73 34.91 C4.45 36.35, 1.57 31.62, 0 26.19 M8.73 34.91 C2.36 36.7, -1.75 31.42, 0 26.19 M0 26.19 C-1.58 18.09, 1.27 13.23, 0 8.73 M0 26.19 C0.03 19.68, 0.53 13.54, 0 8.73 M0 8.73 C-0.82 2.99, 1.56 1.19, 8.73 0 M0 8.73 C-1.97 5.1, 5.03 -2.2, 8.73 0" stroke="#1e1e1e" stroke-width="1" fill="none"></path></g><g stroke-linecap="round"><g transform="translate(355.42607363803995 28.91349017196319) rotate(0 8.899627008996504 0.6845866929997158)"><path d="M0.3 0.31 C3.25 0.41, 15.35 0.87, 18.19 1.13 M-0.21 -0.01 C2.65 0.39, 14.86 1.53, 17.96 1.71" stroke="#1e1e1e" stroke-width="1" fill="none"></path></g></g><mask></mask><g stroke-linecap="round"><g transform="translate(355.798933842618 36.743985553882965) rotate(0 8.899627008996504 0.6845866929997158)"><path d="M0.19 0.05 C3.26 0.23, 15.13 1.13, 18.1 1.35 M-0.38 -0.4 C2.68 -0.15, 14.79 1.65, 17.82 2.05" stroke="#1e1e1e" stroke-width="1" fill="none"></path></g></g><mask></mask><g stroke-linecap="round"><g transform="translate(355.2454144056517 44.98738737097739) rotate(0 8.899627008996504 0.6845866929997158)"><path d="M0.18 0.32 C3.11 0.57, 14.49 1.43, 17.35 1.53 M-0.4 0.02 C2.73 0.08, 15.22 0.44, 18.35 0.64" stroke="#1e1e1e" stroke-width="1" fill="none"></path></g></g><mask></mask><g transform="translate(337.8354056698115 60.692343541844025) rotate(0 30.199966430664062 12.5)"><text x="0" y="0" font-family="Virgil, Segoe UI Emoji" font-size="20px" fill="#1e1e1e" text-anchor="start" style="white-space: pre;" direction="ltr" dominant-baseline="text-before-edge">server</text></g><g stroke-linecap="round"><g transform="translate(68.84288805926246 44.72966863516507) rotate(0 125.1589593141278 -2.0801884518715212)"><path d="M-0.01 0.91 C41.62 0.01, 208.89 -3.8, 250.45 -4.73 M-1.48 0.34 C39.95 -0.46, 207.37 -2.84, 249.57 -3.5" stroke="#1e1e1e" stroke-width="1" fill="none"></path></g><g transform="translate(68.84288805926246 44.72966863516507) rotate(0 125.1589593141278 -2.0801884518715212)"><path d="M226.21 5.4 C235.94 2.47, 241.74 -2.56, 249.57 -3.5 M226.21 5.4 C232.58 2.71, 238.51 0.58, 249.57 -3.5" stroke="#1e1e1e" stroke-width="1" fill="none"></path></g><g transform="translate(68.84288805926246 44.72966863516507) rotate(0 125.1589593141278 -2.0801884518715212)"><path d="M225.95 -11.7 C235.86 -8.58, 241.75 -7.55, 249.57 -3.5 M225.95 -11.7 C232.23 -10, 238.23 -7.74, 249.57 -3.5" stroke="#1e1e1e" stroke-width="1" fill="none"></path></g></g><mask></mask><g transform="translate(163.5403457014786 10) rotate(0 37.4599609375 12.5)"><text x="0" y="0" font-family="Virgil, Segoe UI Emoji" font-size="20px" fill="#1e1e1e" text-anchor="start" style="white-space: pre;" direction="ltr" dominant-baseline="text-before-edge">request</text></g><g transform="translate(113.53854261488209 57.29615174454136) rotate(0 87.59992980957031 12.5)"><text x="0" y="0" font-family="Virgil, Segoe UI Emoji" font-size="20px" fill="#1e1e1e" text-anchor="start" style="white-space: pre;" direction="ltr" dominant-baseline="text-before-edge">User Agent String</text></g><g stroke-linecap="round"><g transform="translate(70.94758423167332 90.7863948241851) rotate(0 -5.8479047125287025 -10.886741655373271)"><path d="M0.4 0.35 C-1.55 -3.38, -9.71 -18.13, -11.74 -21.85 M-0.06 0.05 C-2.07 -3.35, -10.17 -17.6, -12.2 -21.19" stroke="#1e1e1e" stroke-width="1" fill="none"></path></g><g transform="translate(70.94758423167332 90.7863948241851) rotate(0 -5.8479047125287025 -10.886741655373271)"><path d="M-2.8 -13.18 C-5.14 -15.5, -8.32 -17.89, -12.2 -21.19 M-2.8 -13.18 C-5.17 -15, -7.45 -17.45, -12.2 -21.19" stroke="#1e1e1e" stroke-width="1" fill="none"></path></g><g transform="translate(70.94758423167332 90.7863948241851) rotate(0 -5.8479047125287025 -10.886741655373271)"><path d="M-10.15 -9.01 C-10.4 -12.55, -11.47 -16.14, -12.2 -21.19 M-10.15 -9.01 C-10.63 -11.89, -11.02 -15.41, -12.2 -21.19" stroke="#1e1e1e" stroke-width="1" fill="none"></path></g></g><mask></mask></svg>