<svg width="285" height="292" viewBox="0 0 285 292" fill="none" xmlns="http://www.w3.org/2000/svg">
<path d="M282.354 132.875H148.625V172.688H243.563C238.75 228.25 192.521 252.021 148.771 252.021C92.9167 252.021 43.9168 207.979 43.9168 146C43.9168 86.2083 90.5834 39.9792 148.917 39.9792C193.979 39.9792 220.375 68.7083 220.375 68.7083L248.083 39.8333C248.083 39.8333 212.5 0.166656 147.458 0.166656C64.6251 0.166656 0.604248 70.1667 0.604248 146C0.604248 219.646 60.8334 291.833 149.646 291.833C227.667 291.833 284.542 238.312 284.542 159.271C284.542 142.5 282.354 132.875 282.354 132.875Z" fill="white"/>
</svg>